<?xml version="1.0" standalone="no"?>
<!DOCTYPE svg PUBLIC "-//W3C//DTD SVG 20010904//EN"
 "http://www.w3.org/TR/2001/REC-SVG-20010904/DTD/svg10.dtd">
<svg version="1.0" xmlns="http://www.w3.org/2000/svg"
 width="1080.000000pt" height="1080.000000pt" viewBox="0 0 1080.000000 1080.000000"
 preserveAspectRatio="xMidYMid meet">
<metadata>
Created by potrace 1.16, written by Peter Selinger 2001-2019
</metadata>
<g transform="translate(0.000000,1080.000000) scale(0.100000,-0.100000)"
fill="#000000" stroke="none">
<path d="M0 5400 l0 -5400 5400 0 5400 0 0 5400 0 5400 -5400 0 -5400 0 0
-5400z m8872 589 l3 -602 164 202 165 201 204 0 204 0 -173 -180 c-96 -99
-200 -209 -231 -244 l-58 -63 245 -302 c135 -166 245 -304 245 -306 0 -3 -91
-5 -203 -5 l-204 0 -172 225 c-95 124 -177 228 -182 231 -5 3 -9 -94 -9 -225
l0 -231 -155 0 -155 0 0 950 0 950 155 0 155 0 2 -601z m-7249 -186 c4 -619 5
-630 57 -733 47 -91 160 -149 267 -136 131 15 194 76 241 229 13 44 16 140 19
635 l4 582 165 0 165 0 -3 -607 c-4 -683 -2 -661 -81 -823 -73 -150 -196 -247
-363 -285 -89 -21 -268 -22 -357 -1 -211 49 -353 196 -420 435 -20 73 -21 100
-25 679 l-3 602 165 0 165 0 4 -577z m1558 5 l203 -572 190 572 189 572 174 0
c111 0 173 -4 173 -10 0 -8 -470 -1258 -622 -1653 l-30 -78 -95 3 -95 3 -319
855 c-175 470 -318 861 -319 868 0 9 41 12 173 12 l174 0 204 -572z m1999 237
l0 -335 305 0 305 0 0 335 0 335 165 0 165 0 0 -845 0 -845 -165 0 -165 0 0
375 0 375 -305 0 -305 0 0 -375 0 -375 -165 0 -165 0 0 845 0 845 165 0 165 0
0 -335z m1761 -257 c31 -14 75 -42 98 -63 l41 -37 0 51 0 51 155 0 155 0 0
-550 0 -550 -155 0 -155 0 0 50 0 51 -37 -36 c-99 -96 -268 -126 -419 -75
-280 96 -427 474 -310 795 59 162 167 273 321 328 77 27 231 20 306 -15z
m1287 22 c24 -6 63 -20 87 -31 l45 -21 0 -150 0 -150 -37 30 c-70 55 -102 66
-188 67 -70 0 -86 -3 -128 -28 -56 -33 -110 -102 -133 -170 -21 -63 -21 -181
0 -245 21 -61 84 -135 139 -164 94 -47 225 -31 306 38 l41 36 0 -151 0 -150
-28 -15 c-105 -54 -295 -67 -412 -26 -175 60 -317 214 -364 397 -21 79 -21
237 0 317 50 194 210 360 395 410 63 17 215 20 277 6z"/>
<path d="M6787 5538 c-54 -15 -139 -96 -168 -160 -34 -78 -33 -202 2 -278 73
-154 226 -210 352 -130 151 95 184 331 68 478 -62 78 -165 115 -254 90z"/>
</g>
</svg>
